<svg xmlns="http://www.w3.org/2000/svg" viewBox="0 0 1000 968" width="100%" height="100%" preserveAspectRatio="xMidYMid meet" style="max-height: 90vh;">
<path transform="translate(388,24)" d="m0 0h12l7 2 8 7 4 8 1 3v16l-4 9-5 6-8 4-20 6-7 10-15 27-9 16-13 24-8 18 7-1 31-7 43-11 15-6 6-7 8-14 9-10 9-6 7-3 6-1h8l9 3 9 6 8 8 7 14 1 5v16l-2 9-10 18-2 25-1 27v150l2 70 1 7 3-3 17-34 14-33 7-19 3-11 3-16 5-8 4-2h10l5 3 4 6 1 9-18 20-10 17-10 19-13 28-8 19-4 12 1 6 4 3 8-1 21-9 28-14 22-12 16-9 5-5 3-12 6-12 8-6 4-2h18l8 5 5 6 4 8 1 4v7l-4 9-6 14v7l5 19 11 28 12 25 7 11 6 7 2 9-4 10-7 6h-9l-5-5-3-6-1-28-6-20-14-39-6-17-4-3-11-3-11-6-8 1-16 6-40 20-24 14-9 7-5 6-2 27 3 8 12 11 16 12 16 8 18 5 4 5 1 8-5 10-4 4-3 1h-9l-6-3-4-5-3-10-4-6-6-7-11-9-13-10-10-6h-7l-7 5-2 6-2 29-1 108v22l3 5 8 7 19 19 10 1h23l92-1 12-14 8-7 5-3 24-3 7-3 7-9 10-18 4-9v-9l-5-2-18-2h-25l-20 2-5 2-7 6-3 1h-7l-6-3-5-6-1-4v-8l4-7 8-5h10l7 6v2l20 2h29l19-2 2-6 6-8 9-8 8-4 11-4 8-8 8-15 6-19 1-19 3-5 4-2h12l6 3 2 3 1 12-2 7-14 10-9 12-8 16-4 11v8l1 6 30-16 23-13 18-10 21-13 11-9 5-7 6-16 6-9 2-4v-14l-2-17-6-26-7-21-7-12-6-8-1-3v-8l4-7 5-4 10-1 8 4 4 5 1 3v10l-4 12 1 19 5 26 6 28 2 9 16 9 8 8 3 7v18l-5 10-7 6-6 2h-14l-20-6-10 5-11 7-17 10-24 13-18 10-16 10-6 5-3 4 1 6 8 11 17 13 14 7 9 3 9 2 7 6 2 4v10l-7 10-3 2-6 1-6-2-5-5-3-4-5-12-9-10-8-7-13-8-8-3-12-1-13 2-8 4-8 9-11 19-3 5 2 5 7 9 5 12v24l-4 10-7 11-9 7-9 4-8 2-8-1-10-3-11-8-8-7-2-1-23-2-21-1h-40l-41 2-11 1-3 1-4 6-8 7-11 5 8 26 6 21 8 20 6 7 8 6 12 12 5 2 32 2h48l32-2 6-1-1-6-8-11-9-9-10-7-12-5-8-3-6-7-1-3v-9l3-5 3-2 5-1h8l6 3 2 2 4 13 7 10 8 9 10 7 5 2 13 1 26-1 10-5 15-14 7-8 10-11 7-10 5-10 4-9 4-4 3-1h9l6 3 4 5 2 5-1 7-7 8-13 5-9 6-10 9-3 3h-2l-2 4-11 11-11 14-5 12-3 18-7 10-9 6-7 2-11-1-10-5-5-5-5-6-20-2-22-1h-44l-22 1-14 2-9 11-7 6-9 4h-9l-17-8-7-1-14 4-19 8-15 8-9 10-4 6h-17l-5-8-1-4v-8l3-5 7-4 21-2 21-6 15-6 12-6 6-7 2-10 7-11 7-7 1-6-14-49-5-13-2-4-5-2-8-2-9 1-7 11-8 16-5 12-2 8v14l-3 6-5 4-2 1h-20l-13 2-16 5-20 8-10 6-4 7-5 12-5 7h-2l-1 3-10 6h-13l-6-4-5-5-5-8-2-9v-9l2-10 7-8 5-2 9-1h10l10 3 6 5 4 1 7-3 10-3 32-13 9-4 7-11 4-5 12-7 10-12 10-18 6-13-1-5-7-15-1-16 2-13 8-14 10-10 2-16 2-45v-60l-2-35-2-14-4-8-6-6-12-3-9-1-21-1h-55l-13 36-10 29-10 27-10 29-15 43-12 36-5 19 2 3h5l11-7 12-9 15-12 14-11 16-13 17-13 3-4 3-12 5-6 4-2h12l6 5 4 8v8l-5 7-23 5-12 6-10 9-14 11-17 14-13 10-15 14-6 9v7l3 5 13 5 18 3 11 2h8l14-4h9l6 3 4 5 1 3v7l-7 9-6 3-9-1-14-11-14-5-18-4-8-1h-12l-18 18-12 7-13 2-6 4-4 6-1 3v9l3 9v8l-4 7-5 4-9 1-7-3-5-7-1-8 7-10 10-12 3-6v-7l-7-11-7-10-3-7-2-9-4-6-6-3-18-5-33-8-18-4h-6l-14 11-3 1h-20l-6-4-6-7-3-10v-16l2-7 2-2-1-6-8-21-14-29-8-16-14-25-11-16-11-12-2-4v-10l3-7 4-5 5-21 4-29 2-29v-12l-3-7-9-11-2-5v-16l4-9 5-6 8-4 5-1h10l7 2 8 7 5 10 1 5v9l-2 8-8 9-12 7-4 11-3 19-3 23-1 14v29l4 10 1 15 5 17 9 21 12 25 11 22 8 14 7 9 3 3 7-1 5-6 10-21 14-36 17-46 9-26 6-20 3-14v-15l-4-8-10-6-11-4-14-1h-12l-8-4-5-6-1-3v-10l4-6 6-4h11l6 5 9 12 9 7 9 5 8 2 12-1 14-6v-70l-1-37-2-13-4-5v-2l-4-2-7-3-11-1-25 2-14 5-13 10-2 1h-12l-5-3-4-6v-11l3-5 6-4 3-1h11l12 5 20-1 22-6 8-4 4-5 3-12-4-7-10-12-13-17-20-26-9-11-7-6-13-4-13-1-8-7-3-6-1-5v-18l3-8 7-7 6-3 11-1 10 3 8 6 6 10 2 6v7l-4 13 1 5 5 9 13 17 14 19 10 14 9 12 9 10 3-1 2-8 2-26v-42l-2-41-4-2-1-2v-14l3-9 3-3 8-1 7 3 6 7 2 6-1 9-4 6-3 4-2 19-1 15v79l18 10 3 1h7l25-9 18-8 11-6 3-3h2l2-4 7-10 1-2v-23l-1-28-4-18-4-6-9-10-6-10-1-4v-17l5-13-1-13-8-24-7-14-7-6-6-5-4-7v-9l9-10 5-3 7 1 7 7 3 7 1 25 6 22 5 12 5 8 4 3 15 3 8 1 2-5 6-11 20-35 12-22 5-11 2-6v-7l-4-12v-15l5-10 8-7zm37 144-63 15-18 5-8 4-6 8-6 11-9 10-3 7-2 17v25l2 20 4 10 8 13 1 7-3 5-6 4-28 4-21 6-21 8-9 5-7 8-6 15-7 8-8 4-9 4-1 40 1 50 1 17 2 9 5 1 13-11 7-7 7-8 12-14 15-20 8-14 6-15 2-2 4-1h11l5 3 2 5v8l-2 7-6 4-12 6-10 9-12 12-7 8-14 17-8 11-5 9-1 2-1 17 1 15 6 12 12 16 9 11 11 13 7 8 11 12 7 7 3-1 8-17 9-24 10-27 10-29 36-99 15-42 11-30 10-29 15-43 20-54 8-24 2-18-3-12-6-10-1-1zm37 70-5 8-10 26-14 40-20 59-14 41-19 56-12 34v2h72l5-5 13-14 7-8 3-3 1-3v-16l-1-47-1-79-1-50-1-31-1-9zm-280 323-5 3-4 8-20 54-16 43-10 26-6 21v8l10 28 16 6 27 8 21 5 14 2 7-3 10-12v-2l4-2 11-8 6-5 9-17 8-21 11-33 6-16v-5l-10-11-9-11-12-14-11-13-13-16-11-12-9-9-5-2-2 5-4 28-1 20v58l4 10 1 11-3 7-5 4-9 1-9-3-3-6v-7l9-19 4-20 1-7 2-32 2-24v-21l-2-4z" fill="#1E1D1E"/>
<path transform="translate(388,24)" d="m0 0h12l7 2 8 7 4 8 1 3v16l-4 9-5 6-8 4-20 6-7 10-15 27-9 16-13 24-8 18 7-1 31-7 43-11 15-6 6-7 4-5 1 1v7l-2 4-1 8 2 10-4-4h-8l-63 15-18 5-8 4-6 9-7 12-8 8-3 12-1 11v25l2 20 4 10 8 13 1 7-3 5-7 5-28 4-21 6-21 8-9 5-6 7-6 15-7 8-6 4-11 4-1 40 1 50 1 17 2 9 5-1 11-9 7-7 7-8 12-14 15-20 8-14 6-15 3-3 4-1h11l5 3 2 2 1 4v8l-2 7-5 4-14 7-10 9-11 11-7 8-14 17-8 11-5 9-1 2-1 17 1 15 6 12 12 16 9 11 11 13 7 8 11 12 6 6h2l8-17 5-13 2 2-2 10-2 4-3 10-3 9-2 3-7-2-10-10-6-7-5-5-6-7-5-7-4-4v-2l-3-1-9-12-8-10-9-12-2-4 1-7 2-6v-8l-4-11v-7l-11-1-8-4-6-1-1-70-1-37-2-13-4-5v-2l-4-2-7-3-11-1-25 2-14 5-13 10-2 1h-12l-5-3-4-6v-11l3-5 6-4 3-1h11l12 5 20-1 22-6 8-4 4-5 3-12-4-7-10-12-13-17-20-26-9-11-7-6-13-4-13-1-8-7-3-6-1-5v-18l3-8 7-7 6-3 11-1 10 3 8 6 6 10 2 6v7l-4 13 1 5 5 9 13 17 14 19 10 14 9 12 9 10 3-1 2-8 2-26v-42l-2-41-4-2-1-2v-14l3-9 3-3 8-1 7 3 6 7 2 6-1 9-4 6-3 4-2 19-1 15v79l18 10 3 1h7l25-9 18-8 11-6 3-3h2l2-4 7-10 1-2v-23l-1-28-4-18-4-6-9-10-6-10-1-4v-17l5-13-1-13-8-24-7-14-7-6-6-5-4-7v-9l9-10 5-3 7 1 7 7 3 7 1 25 6 22 5 12 5 8 4 3 15 3 8 1 2-5 6-11 20-35 12-22 5-11 2-6v-7l-4-12v-15l5-10 8-7z" fill="#494A4D"/>
<path transform="translate(38,431)" d="m0 0h10l7 2 8 7 5 10 1 5v9l-2 8-8 9-12 7-4 11-3 19-3 23-1 14v29l4 10 1 15 5 17 9 21 12 25 11 22 8 14 7 9 3 3 7-1 5-6 10-21 14-36 17-46 9-26 6-20 3-14v-15l-4-8-10-6-11-4-14-1h-12l-8-4-5-6-1-3v-10l4-6 6-4h11l6 5 9 12 9 7 9 5 8 2 12-1 6-2-1 4h-3v4l-4 1-1 3-2 1v14l3 8 3 11 6 1 5 3 10 1h2l-2 20-2 12-1 20v58l4 10 1 11-3 7-6 5-9 1-9-3-4-7v-7l9-19 4-20 1-7 2-32 2-24v-21l-1-3-4-1-4 2-4 8-20 54-16 43-10 26-6 21v8l5 14 4 12v2l10 3 33 10 21 5 14 2 7-3 3-2-1 6-3 3-1 7 1 2v7l-4-5-4-3-21-6-33-8-18-4h-6l-14 11-3 1h-20l-6-4-6-7-3-10v-16l2-7 2-2-1-6-8-21-14-29-8-16-14-25-11-16-11-12-2-4v-10l3-7 4-5 5-21 4-29 2-29v-12l-3-7-9-11-2-5v-16l4-9 5-6 8-4z" fill="#48494C"/>
<path transform="translate(497,41)" d="m0 0h8l8 5 3 3v2l4 2 9 4 25 6 37 7 27 3h7l5-2 11-9 6-3h10l10 4 10 9 4 8v13l-4 10-6 8-5 3-6 1-1 21v49l1 95 4 4 14 7 9-1 20-8 22-11 14-10 5-8 2-6v-21l-7-37-6-24-5-13-5-8-1-3v-13l3-6 4-3h10l8 6 3 5 1 6-2 9-2 3-1 7 1 23 5 30 7 28 7 14 4 6 1 9-3 6-6 5-27 1-33 15-19 8-4 7-2 13-5 9-7 8-8 4h-14l-10-5-6-7-3-7-1-9 2-11 6-10 9-8 4-4v-113l-3-51-5 5-8 11-9 14-12 22-7 16-1 6v7l-6 11-5 4h-9l-5-4-3-9v-10l2-5 6-5 9-6 13-17 11-17 9-15 6-13 1-4-4-10-6-11-1-1-26-4-45-8-13-2h-23l-14 4-8-2-5-5-2-5v-10l3-6 6-5z" fill="#48494C"/>
<path transform="translate(882,431)" d="m0 0 9 1 6 4 4 7v10l-4 12 1 19 5 26 6 28 2 9 16 9 8 8 3 7v18l-5 10-7 6-6 2h-14l-20-6-10 5-11 7-17 10-24 13-18 10-16 10-6 5-3 4 1 6 8 11 17 13 14 7 9 3 9 2 7 6 2 4v10l-7 10-3 2-6 1-6-2-5-5-3-4-5-12-9-10-8-7-13-8-8-3-12-1-13 2-8 4-8 9-11 19-3 5 2 5 7 9 1 4-7-4-8-10v-2l-11-2-2-2 7-3 7-9 10-18 4-9v-9l-5-2-18-2h-25l-20 2-5 2-7 6-3 1h-7l-6-3-5-6-1-4v-8l4-7 8-5h10l7 6v2l20 2h29l19-2 2-6 6-8 9-8 8-4 11-4 8-8 8-15 6-19 1-19 3-5 4-2h12l6 3 2 3 1 12-2 7-14 10-9 12-8 16-4 11v8l1 6 30-16 23-13 18-10 21-13 11-9 5-7 6-16 6-9 2-4v-14l-2-17-6-26-7-21-7-12-6-8-1-3v-8l4-7 5-4z" fill="#1E1D1E"/>
<path transform="translate(564,782)" d="m0 0 43 1h39l14 2 3 4-1 3-14-2-34-2h-40l-41 2-11 1-3 1-4 6-8 7-11 5 8 26 6 21 8 20 6 7 8 6 12 12 5 2 32 2h48l32-2 6-1-1-6-8-11-9-9-10-7-12-5-8-3-6-7-1-3v-9l3-5 3-2 5-1h8l6 3 2 2 4 13 7 10 8 9 10 7 5 2 13 1 26-1 10-5 15-14 7-8 10-11 7-10 5-10 4-9 4-4 3-1h9l6 3 4 5 2 5-1 7-7 8-13 5-9 6-10 9-3 3h-2l-2 4-11 11-11 14-5 12-3 18-7 10-9 6-7 2-11-1-10-5-5-5-5-6-20-2-22-1h-44l-22 1-14 2-9 11-7 6-9 4h-9l-17-8-7-1-14 4-19 8-15 8-9 10-4 6h-17l-5-8-1-4v-8l3-5 7-4 21-2 21-6 15-6 12-6 6-7 2-10 7-11 7-7 1-6-14-49-5-13-2-4-5-2-3-2 8-1 5 1 9-3 9-7h2l4-5h2l2-4 5-5 4-1z" fill="#1E1D1E"/>
<path transform="translate(504,185)" d="m0 0 1 2-3 6-2 25-1 27v150l2 70 1 7 3-3 17-34 14-33 7-19 3-11 3-16 5-8 4-2h10l5 3 4 6 1 9-18 20-10 17-10 19-13 28-8 19-4 12 1 6 4 3 8-1 21-9 28-14 22-12 16-9 5-5 3-12 6-12 8-6 4-2h18l8 5 5 6 4 8 1 4v7l-4 9-6 14v7l5 19 11 28 12 25 7 11 6 7 2 9-4 10-7 6h-9l-5-5-3-6-1-28-6-20-14-39-6-17-4-3-11-3-11-6-8 1-16 6-40 20-24 14-9 7-5 6-2 27 3 8 12 11 16 12 16 8 18 5 4 5 1 8-5 10-4 4-3 1h-9l-6-3-4-5-3-10-4-6-6-7-11-9-13-10-10-6h-7l-7 5-2 6-2 29-2-1-1-28 3-7 2-2 5-2 4-2 1-3 6-3 3-9 2-15 1-7-1-9 1-7-5-1-4-4-9-12-7-2-2-2-1-7v-173l-1-19 1-83 2-3h2v-2z" fill="#48494C"/>
<path transform="translate(839,265)" d="m0 0h7l9 3 9 7 5 8 2 5 1 8-2 9-6 10-7 6-4 2-16 2-9 18-13 34-7 18-8 23-12 36-1 5 8 14 3 9v7l-3 10-6 10-7 6-5 2h-11l-10-5-8-9-4-10v-12l4-10 7-8 14-4 5-5 7-15 9-25 27-72 7-25v-5l-7 3-11 7-8 7-10 8-10 9-25 20-4 16-4 4-2 1h-14l-5-4-1-3v-13l3-6 9-3 10-4 12-7 11-8 13-10 13-12 14-14 7-10 5-13 6-8 5-4z" fill="#494A4D"/>
<path transform="translate(446,781)" d="m0 0 4 4 7 11 4 3v2l7 1 1 3 5 2-3 1-9 1-7 11-8 16-5 12-2 8v14l-3 6-5 4-2 1h-20l-13 2-16 5-20 8-10 6-4 7-5 12-5 7h-2l-1 3-10 6h-13l-6-4-5-5-5-8-2-9v-9l2-10 7-8 5-2 9-1h10l10 3 6 5 4 1 7-3 10-3 32-13 9-4 7-11 4-5 12-7 10-12 10-18 6-13-1-5-6-12z" fill="#494A4D"/>
<path transform="translate(497,41)" d="m0 0h8l8 5 3 3v2l4 2 9 4 25 6 37 7 27 3h7l5-2 11-9 6-3h10l10 4 10 9 4 8v13l-4 10-6 8-3 2-9 1-7 1-11-3-7-8-1-2-3-1-8-15-1-1-26-4-45-8-13-2h-23l-14 4-8-2-5-5-2-5v-10l3-6 6-5z" fill="#1E1D1E"/>
<path transform="translate(882,431)" d="m0 0 9 1 6 4 4 7v10l-4 12 1 19 5 26 6 28 2 9 16 9 8 8 3 7v18l-5 10-7 6-6 2h-14l-10-3-4-2 1-2 1-1v-2l-4-2-2-6 1-8-1-2h2l-2-6 1-6 9-15v-14l-2-17-6-26-7-21-7-12-6-8-1-3v-8l4-7 5-4z" fill="#1F1E1F"/>
<path transform="translate(777,809)" d="m0 0h9l6 3 4 5 2 5-1 7-7 8-13 5-9 6-10 9-3 3h-2l-2 4-11 11-11 14-5 12-3 18-7 10-4 3-15 3-12-3-5-3-1-4-4-4-1-4-3-1v-8l3-7 1-11 9-3 1-4 29-2 10-5 15-14 7-8 10-11 7-10 5-10 4-9 4-4z" fill="#1E1D1E"/>
<path transform="translate(188,384)" d="m0 0 5 1v3l3 1 1 3v18l1 28 1-7h1l1 50 1 17 2 9 5-1 11-9 7-7 7-8 12-14 15-20 8-14 6-15 3-3 4-1h11l5 3 2 2 1 4v8l-2 7-5 4-14 7-10 9-11 11-7 8-14 17-8 11-5 9-1 2-1 17 1 15 6 12 12 16 9 11 11 13 7 8 11 12 6 6h2l8-17 5-13 2 2-2 10-2 4-3 10-3 9-2 3-7-2-10-10-6-7-5-5-6-7-5-7-4-4v-2l-3-1-9-12-8-10-9-12-2-4 1-7 2-6v-8l-4-11v-7l-11-1-8-4-6-1-1-70-1-37-2-15z" fill="#4C4C4F"/>
<path transform="translate(389,672)" d="m0 0h12l6 5 4 8v8l-5 7-23 5-12 6-10 9-14 11-17 14-13 10-15 14-6 9v7l3 5 13 5 18 3 11 2h8l14-4h9l6 3 4 5 1 3v7l-7 9-6 3-9-1-14-11-14-5-18-4-8-1h-12l-9 9-1-4 8-13-1-5-2-16 1-5-1-4h-3v-3l-2-1 7-3 11-7 28-22 17-14 13-10 14-11 3-6 2-9 5-6z" fill="#48494C"/>
<path transform="translate(623,835)" d="m0 0h8l6 3 2 2 4 13 7 10 8 9 10 7 5 2 13 1-3 1-1 4-8 3-1 11-3 7v8l3 3 2 4 3 2v4l4 1 7 3 10 2 1-2 9-1-4 3-7 2-11-1-10-5-5-5-5-6-20-2-22-1h-44l-22 1-14 2-9 11-3 2 1-7 4-4 4-8-1-4-5-10-2-7-2-1 4 1 7 8 6 3 32 2h48l32-2 6-1-1-6-8-11-9-9-10-7-12-5-8-3-6-7-1-3v-9l3-5 3-2z" fill="#4A4B4E"/>
<path transform="translate(730,648)" d="m0 0 3 2-3 8h-2l-1 7 7 10 3 5 1 4 4 1h6l5 4-9 4-8 7-12 20-4 7 2 5 7 9 1 4-7-4-8-10v-2l-11-2-2-2 7-3 7-9 10-18 4-9v-9l-5-2-18-2h-25l-20 2-5 2-7 6-3 1h-7l-6-3-5-6-1-4v-8l4-7 8-5h10l7 6v2l20 2h29l19-2 2-6z" fill="#4A4B4E"/>
<path transform="translate(769,459)" d="m0 0 9 1 6 4 7 8 4 1 3 9v7l-3 10-6 10-7 6-5 2h-11l-10-5-8-9-4-10v-12l4-10 7-8z" fill="#1E1D1E"/>
<path transform="translate(204,331)" d="m0 0 4 1 5 5 4 5 5 5 5 4v12l-2 9h-2l-3 9-8 6-11 4-2 70h-1l-1-31-1-23v-16l-3-3v-3h-6l-1-3-2-1v-2h-2l-5-9v-2l-3-1v-7l4-6 1-8h2l1-6 5-2h3v-2l9-3z" fill="#1E1D1E"/>
<path transform="translate(38,431)" d="m0 0h10l7 2 8 7 5 10 1 5v9l-2 8-8 9-5 3-9 1-6 2-1-1-9-1-9-10-4-8v-16l4-9 5-6 8-4z" fill="#1E1E1F"/>
<path transform="translate(388,24)" d="m0 0h12l7 2 8 7 4 8 1 3v16l-4 9-5 6-8 4h-9l-9-2-6-1-2-1-2-6-4-4-1-9-3-1v-11l5-10 8-7z" fill="#1E1D1E"/>
<path transform="translate(651,282)" d="m0 0 5 1 3 2v2l7 1 6 4 5 6 2 1v12l-2 17-8 9-8 4h-14l-10-5-6-7-3-7-1-9 2-11 6-10 2-2h5v-2l6-3z" fill="#1E1D1E"/>
<path transform="translate(316,881)" d="m0 0h10l6 2 5 5v2h2l2 5 3 1 1 2-1 19-7 11h-2l-1 3-10 6h-13l-6-4-5-5-5-8-2-9v-9l2-10 7-8 5-2z" fill="#1F1E1F"/>
<path transform="translate(98,200)" d="m0 0 11 1 8 4 5 4 6 10-1 3-1-1 1 13-1 7-2 3h-2l-1 3-4 4-4 3-5 1h-19l-8-7-3-6-1-5v-18l3-8 7-7 6-3z" fill="#1E1D1E"/>
<path transform="translate(839,265)" d="m0 0h7l9 3 9 7 5 8 2 5 1 8-2 9-2 4-5 1v2l-5 3-5 4h-13l-10-2-5-6-5-5-2-4v-11l2-11 6-8 5-4z" fill="#1E1D1E"/>
<path transform="translate(641,406)" d="m0 0h18l8 5 5 6 4 8 1 4v7l-4 9-2 4-8 7-1 2-5 2h-3v-2h-10l-10-4-9-8-1-5v-9h-2l2-9 5-9 8-6z" fill="#1E1D1E"/>
<path transform="translate(108,723)" d="m0 0 6 1 6 8 5 6 2 16-1 7-1 3h-2l-2 5-4 7-5 2h-20l-6-4-6-7-3-10v-16l2-7 5-6 6-3z" fill="#1E1D1E"/>
<path transform="translate(497,41)" d="m0 0h8l8 5 3 3v2l4 2 9 4 25 6 37 7 27 3h7l5-2 3-3h2l-2 5-3 4-1 7 2 11v6l-3-4-6-11-1-1-26-4-45-8-13-2h-23l-14 4-8-2-5-5-2-5v-10l3-6 6-5z" fill="#494A4D"/>
<path transform="translate(292,168)" d="m0 0 9 1 12 2 10 3 4 8 4 4-3 10-4 10-3 7-5 5-8 4-5 1-9-3-5-1-7-8-4-7v-9l1-10 4-8 6-8z" fill="#1E1D1E"/>
<path transform="translate(184,560)" d="m0 0 8 2h8l-2 20-2 12-1 20v58l4 10 1 11-3 7-6 5-9 1-9-3-4-7v-7l9-19 4-20 1-7 2-32 2-24v-21l-1-3-2-1z" fill="#494A4D"/>
<path transform="translate(882,431)" d="m0 0 9 1 6 4 4 7v10l-4 12 1 19 5 26 6 28 2 9 13 7-1 2-9-3-5-2-4 2-5 3-5 5h-3l5-6 1-3v-14l-2-17-6-26-7-21-7-12-6-8-1-3v-8l4-7 5-4z" fill="#494A4D"/>
<path transform="translate(777,809)" d="m0 0h9l6 3 4 5 2 5-1 7-7 8-13 5-9 6-10 9-3 3h-2l-2 4-11 11-11 14-5 12-3 18-2 2 1-13 1-6-2-1-1-12-1-2-4 1-4-2-1-2-12-1v-1l16-1 10-5 15-14 7-8 10-11 7-10 5-10 4-9 4-4z" fill="#4F5052"/>
<path transform="translate(733,119)" d="m0 0h10l8 6 3 5 1 6-2 9-2 3-1 7 1 23 5 30 7 28 7 15-6-1-2-1v-2l-12 2v-23l-7-37-6-24-5-13-5-8-1-3v-13l3-6z" fill="#4B4C4F"/>
<path transform="translate(865,309)" d="m0 0h2l-2 5-8 7-4 2-16 2-9 18-13 34-7 18-8 23-12 36-1 5 7 12v2l-4-1-8-9-11-4 8-15 8-21 8-23 13-34 9-24 7-25v-7l5 5 6 2 5 1h13l7-6h3v-2z" fill="#48494C"/>
<path transform="translate(564,782)" d="m0 0 43 1h39l14 2 3 4-1 3-14-2-34-2h-40l-41 2-11 1-3 1-4 6-8 7-11 5 8 26 6 21 8 20 6 7 7 5-1 3-4-2v-2l-10-2-2-1v-2l-7 3-4 5-5 2v3l-3-1 3-5 7-8-1-7-12-43-6-16-2-4-5-2-3-2 8-1 5 1 9-3 9-7h2l4-5h2l2-4 5-5 4-1z" fill="#48494C"/>
<path transform="translate(492,898)" d="m0 0h2v5l-2 1 1 6-1 11-1 4h2v2h2l3 5 9 4 9 1 13-1-4 3-5 2h-9l-17-8-7-1-14 4-19 8-15 8-9 10-4 6h-17l-5-8-1-4v-8l3-5 7-4 21-2 21-6 15-6 12-6 6-7 2-10z" fill="#4A4B4E"/>
<path transform="translate(779,666)" d="m0 0 2 2 4 8 5 6 17 13 14 7 9 3 9 2 7 6 2 4v10l-7 10-3 2-6 1-6-2-5-5-3-4-5-12-9-10-8-7-13-8-8-3-11-2 3-5 9-4 2-9z" fill="#494A4C"/>
<path transform="translate(887,572)" d="m0 0 3 2v3 4l-1 9 3 6 4 4-4 2-7-1-12 7-16 10-29 16-22 12-16 10-6 5-4 4-1-5 1-7-1-2-4-1 1-3v2l30-16 23-13 18-10 21-13 11-9 5-7z" fill="#4C4D50"/>
<path transform="translate(791,561)" d="m0 0h12l6 3 2 3 1 12-2 7-14 10-9 12-8 16-4 11v11l-4-4-3-5-9-1-4 1-5-1-3-2 12-4 8-7 6-9 6-13 4-14 1-19 3-5z" fill="#4B4C4E"/>
<path transform="translate(227,819)" d="m0 0 4 1 5 3 4 3 12-1 5 1 14-1-4 3-7 2-10 2-6 5-3 7v9l3 9v8l-4 7-5 4-9 1-7-3-5-7-1-8 7-10 10-12 3-6v-7z" fill="#201F21"/>
<path transform="translate(45,484)" d="m0 0h8l-4 3-3 3-4 14-3 24-2 13-1 14v32l-1-2-14-1-2-1 4-17 5-35 2-29v-12l-1-5h9l2 1z" fill="#4A4B4E"/>
<path transform="translate(125,738)" d="m0 0h2l4 12v2l10 3 33 10 21 5 14 2 7-3 3-2-1 6-3 3-1 7 1 2v7l-4-5-4-3-21-6-33-8-18-4h-6l-10 8-1-2 5-8h2l1-10-2-15z" fill="#47484B"/>
<path transform="translate(202,559)" d="m0 0 7 1 8 7 2 4 4 2 7 8 2 4h2l6 8 9 10 11 13 6 8 11 12 6 7 2 8-3 7-5 12-3 9-5 14-11 33-1 5-4 11-5 5-13 6-5 1 5-5 10-7 6-10 7-16 7-19 10-29 5-14v-5l-10-11-9-11-12-14-11-13-13-16-11-12-8-8-5-2-1-2z" fill="#46474A"/>
<path transform="translate(410,859)" d="m0 0 1 4-2 3v6l5 2 6 5 10 1v1h-20l-13 2-16 5-20 8-10 6-4 7-2 6-2-2 1-15-5-6v-2h-2v-2l-4-2-1-3 5 2 5 4 4 1 7-3 10-3 32-13 9-4 4-6z" fill="#4A4B4E"/>
<path transform="translate(263,79)" d="m0 0 7 1 7 7 2 6-1 1v11l-3 5-3 1v2l-10 2-8-6-5-8v-9l9-10z" fill="#1E1D1E"/>
<path transform="translate(465,222)" d="m0 0 3 2 2 13 1 30v24 4l-1 3-2 110h-1l-1-79-1-50-1-31-1-9-3 3-6 14-6 16h-1v-6l4-15 7-19 3-6h2z" fill="#4C4D4F"/>
<path transform="translate(197,182)" d="m0 0 8 1 7 6 3 5 1 10-3 6-6 3-3 3-3 1-6-2-1-2-6-2-1-2v-14l3-9 3-3z" fill="#212021"/>
<path transform="translate(355,539)" d="m0 0 1 2-10 29-17 48-10 28-17 48-12 36-6 19-2 8-3-1v-7l5-17 7-19 4-12 5-12 8-24 3-11 3-9 8-20 3-9 2-7h2l1-7 4-7 5-18 3-9 1-4h2l1-10 4-8 1-4z" fill="#494A4D"/>
<path transform="translate(184,673)" d="m0 0 5 1 1 4 8 2 2 7-1 10-6 7-6 2-10-1-5-3-3-6v-7l3-7h3v-2l6-3z" fill="#1F1E1F"/>
<path transform="translate(733,119)" d="m0 0h10l8 6 3 5 1 6-2 9-2 3-7 2h-9l-6-2-3-7v-13l3-6z" fill="#201F21"/>
<path transform="translate(98,362)" d="m0 0h11l2 1-1 4 4 2 3 5v2h-2l1 5-5 9-4 2h-12l-5-3-4-6v-11l3-5 6-4z" fill="#1F1E1F"/>
<path transform="translate(882,431)" d="m0 0 9 1 6 4 2 5-1 13-6 8-4 1-14-4-4-5-1-3v-8l4-7 5-4z" fill="#201F20"/>
<path transform="translate(689,546)" d="m0 0 6 2 10 4 4 7 1 6-4 10-7 6h-9l-5-5-3-6v-12l1-5 3-2z" fill="#1F1E1F"/>
<path transform="translate(389,672)" d="m0 0h12l6 5 4 8v8l-5 7-11 2-8-1-5-5-1-13 2-4h3v-5z" fill="#1E1D1F"/>
<path transform="translate(222,534)" d="m0 0h1l1 15 6 12 12 16 9 11 11 13 7 8 11 12 6 6h2l8-17 5-13 2 2-2 10-2 4-3 10-3 9-2 3-7-2-10-10-6-7-5-5-6-7-5-7-4-4v-2l-3-1-9-12-8-10-9-12-2-4 1-7 3-9z" fill="#47484B"/>
<path transform="translate(777,809)" d="m0 0h9l6 3 4 5 2 5-1 7-7 8-2 1h-9l-7-2-6-10 2-9 6-7z" fill="#212021"/>
<path transform="translate(363,796)" d="m0 0h9l6 3 4 5 1 3v7l-7 9-6 3-9-1-6-5-3-11v-5l3 1 2-6 2-2z" fill="#201F21"/>
<path transform="translate(282,415)" d="m0 0h11l5 3 2 2 1 4v8l-2 7-5 4-9 2-10-2-2-19 3-6 2-2z" fill="#201F20"/>
<path transform="translate(558,346)" d="m0 0h10l5 3 4 6 1 9-9 10-4 2v-2l-10 2-3-1-1-6h-3v-10l5-10z" fill="#1F1E1F"/>
<path transform="translate(413,939)" d="m0 0h11v3h2v2l8 1-2 1-1 6-3 13-2 3h-17l-5-8-1-4v-8l3-5z" fill="#1F1E1F"/>
<path transform="translate(791,561)" d="m0 0h12l6 3 2 3 1 12-2 7-6 4-13-1-3-3-3-5-1-13 3-5z" fill="#201F20"/>
<path transform="translate(623,835)" d="m0 0h8l6 3 2 2 2 7v4h-2v8l-8 5-4 1-8-3-6-7-1-3v-9l3-5 3-2z" fill="#201F20"/>
<path transform="translate(735,358)" d="m0 0h5l6 4 4 6v12l-3 5-4 2h-14l-5-4-1-3v-13l3-6z" fill="#1F1E20"/>
<path transform="translate(755,247)" d="m0 0h7v2l9 2 4 8-1 9-6 7-2 1h-8l-9-5-2-2-1-13 5-8z" fill="#201F20"/>
<path transform="translate(424,848)" d="m0 0h5l4 2 3 11 2 7-2 1-3 10-1 1h-12l-6-5-5-3-1-7 2-2 1-4h3v-4h3l2-4z" fill="#1E1D1E"/>
<path transform="translate(496,43)" d="m0 0 3 1 2-1 5 1v2l5 2 3 7 2 5-2 6-4 6-10 3-5-2-5-5v-2l-3-2v-8h3v-9l4-1h2z" fill="#1E1D1E"/>
<path transform="translate(18,583)" d="m0 0h10l7 2v2h2v9l1 6-1 6h-2l-1 5-3 1-12-2-6-7-1-2v-10l3-7z" fill="#1F1E1F"/>
<path transform="translate(436,222)" d="m0 0 2 3-6 18-2 4-2 6-3 6-2 8-5 14-3 6-2 6-6 16-6 20-8 24-3 6-2 6-2 3-2 9-2 4-4 9-1 4-4 10-2 7-2 6-3 7-2 9-2 3-2 9-4 10-3 10-3 9h-2l-1 5-2 7-3 5-1 7-4 5-1-3 17-47 14-38 10-29 10-27 10-29 15-43 20-54z" fill="#48494C"/>
<path transform="translate(580,577)" d="m0 0 10 2 4 5 1 8-5 10-4 4-3 1h-9l-2-2-2-7-2-2-1-4v-8l1-3z" fill="#1F1E1F"/>
<path transform="translate(585,178)" d="m0 0 8 1 5 4 3 12-1 5-3 5-3 2-12 1-5-2-2-7v-10l2-5 6-5z" fill="#1F1E1F"/>
<path transform="translate(639,653)" d="m0 0 10 2 6 5v4h2v6l-5 8-13 3-7-6v2h-2l-2-6v-8l4-7z" fill="#201F20"/>
<path transform="translate(665,738)" d="m0 0h1v6l-3 1-1 2h-2v4h-2l-1 4h-3l-2 2-6 1-2-1h-83l-2-1-1 2h-28l-2-2-7-2-5-11 1-2 11 11 10 1h23l92-1z" fill="#46474A"/>
<path transform="translate(308,303)" d="m0 0 10 4 2 2 3 12-2 6-5 3-4 1h-11l-5-5-1-5 1-4 4-8 4-5z" fill="#1E1D1E"/>
<path transform="translate(826,710)" d="m0 0 4 1 3 1 1-2 1 3 5-2 5 1 3 5v10l-5 5-5 3h-7l-6-2-4-5-1-14z" fill="#1E1D1E"/>
<path transform="translate(110,486)" d="m0 0h15l4 2 3 16-2 5-9 3-8 1-4-4h-2l-1-18h4z" fill="#1E1D1E"/>
<path transform="translate(227,819)" d="m0 0 4 1 5 3 4 3 12-1 5 1 14-1-4 3-7 2-10 2-6 5-3 7v9l3 9v8l-2 4h-1l-1-13-4-8-5-2-7-1 6-8 3-6v-7z" fill="#47484B"/>
<path transform="translate(468,471)" d="m0 0h1l-1 9-5 4-6 7h-2l-2 5-4 6-5 5-8 2h-55l-13-1-1-5h75l2-4 13-14 7-8 3-3z" fill="#454649"/>
<path transform="translate(409,380)" d="m0 0 1 2-14 41-12 36-14 40h-1v-8l2-5 1-5 3-11 2-4 7-21 5-14 6-18 10-24 2-8z" fill="#494A4D"/>
<path transform="translate(629,302)" d="m0 0 2 3 1 4 1 11 2 8h2l2 4 8 4 10 1 7-1 4-1v-2l4 1-8 6-3 1h-14l-10-5-6-7-3-7-1-9z" fill="#454649"/>
<path transform="translate(269,688)" d="m0 0 1 2-3 8-7 23-2 5-1 5-4 11-5 5-13 6-5 1 5-5 10-7 6-10 7-16 7-19 3-8z" fill="#494A4D"/>
<path transform="translate(364,426)" d="m0 0 1 3-3 7-2 9-4 10-3 10-3 9h-2l-1 5-2 7-3 5-1 7-4 5-1-3 17-47 9-25z" fill="#454649"/>
<path transform="translate(436,222)" d="m0 0 2 3-6 18-2 4-2 6-3 6-2 8-5 14-3 6-2 6-3 8-3 2 3-10 19-52z" fill="#46474A"/>
<path transform="translate(748,501)" d="m0 0 3 1v2l3 1v3l4 2 10 2 17-2 1-3h2v-2l4-1-4 6-8 6-3 1h-11l-10-5-8-9z" fill="#444548"/>
<path transform="translate(429,535)" d="m0 0 20 1 5 5v2l-21-3-32-2v-1l20-1h3z" fill="#46474A"/>
<path transform="translate(439,289)" d="m0 0h2l-1 5-12 35-12 36h-1v-6l7-20 5-18 3-7 6-17z" fill="#555659"/>
<path transform="translate(442,185)" d="m0 0 7 4-2 13-2 5h-2l-1 7-4 8-1-3 4-15 1-13z" fill="#4B4C4F"/>
<path transform="translate(462,551)" d="m0 0 6 1 2 1v23l-1 1-1 11h-1l-2-26z" fill="#47484B"/>
<path transform="translate(508,549)" d="m0 0m-1 1v3l-5 5-2 14-1 19-2-1-1-28 3-7 2-2 5-2z" fill="#46474A"/>
<path transform="translate(330,516)" d="m0 0h2v6l-2 1v6l-3 7h-2l1 4-2 6-2 1-1 7-3 2-2 3 1-6z" fill="#46474A"/>
<path transform="translate(263,79)" d="m0 0 7 1 3 4h-11l-3 1-5 5v6l-3 1-1 4h-1v-9l9-10z" fill="#46474A"/>
<path transform="translate(497,41)" d="m0 0m-3 1 3 1-1 3h-2l-1 2-2-1-1 9h-3l1 8 3 2 2 5 3 3-6-2-4-5-1-4v-10l3-6z" fill="#434447"/>
<path transform="translate(472,114)" d="m0 0h8l9 3 9 6 1 2-7-2-5-3-6-2-9-1-11 2v-2l5-2z" fill="#48494C"/>
<path transform="translate(467,695)" d="m0 0h1v34l-4 2-2 4-3 1-5 5v-3l10-10 2-16z" fill="#4A4B4E"/>
<path transform="translate(669,414)" d="m0 0 3 3 4 8 1 4v7l-3 7h-1l-1-15-3-11z" fill="#4D4E51"/>
<path transform="translate(600,199)" d="m0 0 1 2-6 9-3 2h-9l-5-4v-2l9 1 7-1 4-4z" fill="#454649"/>
<path transform="translate(499,933)" d="m0 0 12 4h7l11-1-4 3-5 2h-9l-12-6z" fill="#454649"/>
<path transform="translate(66,447)" d="m0 0 2 3 1 5v9l-2 8-6 7v-3l1-2h2l1-9v-16z" fill="#494A4D"/>
<path transform="translate(407,679)" d="m0 0 3 3 1 3v8l-4 6h-1v-17z" fill="#454649"/>
<path transform="translate(676,76)" d="m0 0 4 1 1 3v13l-3 8-1-3 1-3z" fill="#434447"/>
<path transform="translate(269,688)" d="m0 0 1 2-3 8-7 23-4 2 3-10 9-24z" fill="#4E4F52"/>
<path transform="translate(126,220)" d="m0 0 3 1 1 4v7l-2 7-3-1 1-5-1-12z" fill="#48494C"/>
<path transform="translate(172,682)" d="m0 0 2 3-3 7h2l1 7 3 3v2l-4-1-4-7v-7z" fill="#4C4D4F"/>
<path transform="translate(588,579)" d="m0 0 4 2 3 6-1 8-2 2-1-4-2-4z" fill="#464749"/>
<path transform="translate(859,272)" d="m0 0 5 3 5 8 2 5 1 8-2 1-4-14-5-6z" fill="#49494C"/>
<path transform="translate(436,222)" d="m0 0 2 3-6 18-2 4v2l-4 2 3-10z" fill="#4C4D50"/>
<path transform="translate(304,931)" d="m0 0 14 3 12-1-4 3-2 1h-13l-6-4z" fill="#46474A"/>
<path transform="translate(733,119)" d="m0 0h10l3 3-4 1-14 1z" fill="#4C4D50"/>
<path transform="translate(425,332)" d="m0 0 1 3-10 30h-1v-6l7-20 2-6z" fill="#494A4D"/>
<path transform="translate(315,559)" d="m0 0 2 3-4 9-2 7-5 12-2 2 2-9z" fill="#434447"/>
<path transform="translate(375,395)" d="m0 0 1 3-3 6-2 7-2 6-3 7-3 3 3-10 7-20z" fill="#535456"/>
<path transform="translate(747,472)" d="m0 0 2 4h-2v18l-2 2-1-3v-12z" fill="#434447"/>
<path transform="translate(216,380)" d="m0 0 4 1-8 6-11 3 2-4h5v-2l7-3z" fill="#46474A"/>
<path transform="translate(344,480)" d="m0 0 2 4-3 6-2 6-2 4-2 3-1-3 7-19z" fill="#434447"/>
<path transform="translate(330,516)" d="m0 0h2v6l-2 1v6l-3 7h-3l1-6z" fill="#48494C"/>
<path transform="translate(843,711)" d="m0 0 4 4 1 2v10l-2 2-2-7-1-2z" fill="#46474A"/>
<path transform="translate(384,370)" d="m0 0 1 4-3 6-3 9-2 5-2 1 2-9 5-14z" fill="#4A4B4E"/>
<path transform="translate(424,846)" d="m0 0h2l-1 3-7 4-1 2h-3v4h-4l2-4 5-5z" fill="#454649"/>
<path transform="translate(835,266)" d="m0 0 4 1-4 4-5 2-6 5-2-1 7-8z" fill="#4A4B4E"/>
<path transform="translate(389,672)" d="m0 0h12l3 3-5 1-11-1-1-2z" fill="#434447"/>
<path transform="translate(112,483)" d="m0 0h11l4 4h-13l-4-2z" fill="#434447"/>
<path transform="translate(439,289)" d="m0 0h2l-1 5-5 15h-2l1-7 3-6z" fill="#47484B"/>
<path transform="translate(424,536)" d="m0 0m-9 0h6l2 3h-11l-11-1v-1z" fill="#505154"/>
<path transform="translate(839,265)" d="m0 0h7l9 3 4 4-3 1-3-3-6-2h-7z" fill="#434447"/>
<path transform="translate(795,475)" d="m0 0 2 3 1 4v7l-2 4-1-6-1-9z" fill="#434447"/>
<path transform="translate(193,311)" d="m0 0h1v20l-4 2v-3l2-8z" fill="#FDFDFD"/>
<path transform="translate(694,807)" d="m0 0 2 1 5-1 4 2-8 2-8-1-5-1v-1h9z" fill="#525356"/>
<path transform="translate(371,36)" d="m0 0 2 3-2 3-1 8-3-1 1-8z" fill="#434447"/>
<path transform="translate(692,534)" d="m0 0 3 4 4 8-5-1-3-9z" fill="#FDFDFD"/>
<path transform="translate(88,385)" d="m0 0 6 2 4 2v3l-6-1-4-4z" fill="#48494C"/>
<path transform="translate(546,372)" d="m0 0h4l-1 5-2 3h-2l-1 3 1-7z" fill="#FDFDFD"/>
<path transform="translate(412,287)" d="m0 0 2 1-2 9-4 6-1-2z" fill="#5B5B5E"/>
<path transform="translate(418,274)" d="m0 0 1 4-4 9h-2l3-11z" fill="#4F5053"/>
<path transform="translate(499,725)" d="m0 0 6 4 4 5-9-3z" fill="#434447"/>
<path transform="translate(385,674)" d="m0 0 2 2-1 3-3 1-1 6h-3l2-7z" fill="#414245"/>
<path transform="translate(389,356)" d="m0 0 1 3-2 6-4 5 2-9z" fill="#434447"/>
<path transform="translate(274,674)" d="m0 0 1 4-5 10-1-3 4-10z" fill="#434447"/>
<path transform="translate(686,577)" d="m0 0 7 1 6 2v1h-9z" fill="#434447"/>
<path transform="translate(433,309)" d="m0 0 1 3-3 9-2-1 1-6z" fill="#505154"/>
<path transform="translate(40,609)" d="m0 0h1l3 13-3-3-3-6 1-3z" fill="#FDFDFD"/>
<path transform="translate(168,549)" d="m0 0h2l-2 10-3 3 2-12z" fill="#FDFDFD"/>
</svg>
